#!OML:ASF F:\VICON\USERDATA\INSTALL\Justin_Nancy\Justin_Nancy.ASF
:FULLY-SPECIFIED
:DEGREES
67
root -9.93309 17.5872 -22.6891 -0.682957 -2.54042 0.353996
lowerback 5.52859 -1.67285 -1.57643
upperback 0.48162 -2.23905 3.35554
thorax -2.40743 -1.08896 4.5231
lowerneck -15.4155 -2.53895 -9.95373
upperneck 22.8309 -2.21234 4.96391
head 9.98236 -1.32615 3.12923
rclavicle 3.926e-015 3.97569e-015
rhumerus -37.3807 -18.0532 -74.1452
rradius 27.4256
rwrist 9.70315
rhand -12.8493 16.8116
rfingers 7.12502
rthumb 13.2385 -12.748
lclavicle 3.926e-015 3.97569e-015
lhumerus -30.9685 12.5188 81.3406
lradius 30.2003
lwrist -8.97928
lhand -13.081 29.0602
lfingers 7.12502
lthumb 13.0151 58.6342
rfemur -17.6904 3.86477 23.9804
rtibia 21.7675
rfoot -0.54197 -5.25389
rtoes 15.3601
lfemur -1.09454 -3.18004 -21.5082
ltibia 48.0697
lfoot 15.9316 -14.5176
ltoes -11.0611
68
root -9.95707 17.6123 -22.5332 -0.636973 -2.46314 0.0169371
lowerback 5.45495 -1.6288 -1.18395
upperback 0.555662 -2.15813 3.342
thorax -2.31203 -1.05478 4.2761
lowerneck -15.6875 -2.60592 -9.78798
upperneck 22.8274 -2.35421 5.09609
head 10.0425 -1.35868 3.12952
rclavicle 2.49972e-014 -7.15625e-015
rhumerus -37.0586 -18.2983 -74.21
rradius 27.2641
rwrist 10.1112
rhand -12.8207 17.0071
rfingers 7.12502
rthumb 13.266 -12.5507
lclavicle 2.49972e-014 -7.15625e-015
lhumerus -30.8061 12.4874 81.3512
lradius 29.9035
lwrist -10.4326
lhand -12.2905 30.0432
lfingers 7.12502
lthumb 13.777 59.567
rfemur -16.7186 4.01553 24.4592
rtibia 21.0699
rfoot -0.563039 -5.65999
rtoes 15.3211
lfemur -2.65145 -3.00977 -20.866
ltibia 50.2543
lfoot 18.0449 -15.8282
ltoes -9.71202
69
root -9.98214 17.6251 -22.3838 -0.740135 -2.45403 -0.482187
lowerback 5.45296 -1.57002 -0.652132
upperback 0.751227 -2.0522 3.33776
thorax -2.13682 -1.01097 3.95852
lowerneck -15.9781 -2.65279 -9.54727
upperneck 22.8089 -2.48533 5.22066
head 10.0985 -1.37979 3.11545
rclavicle -4.96962e-015 -1.27222e-014
rhumerus -36.5511 -18.5182 -74.4825
rradius 27.0243
rwrist 10.0887
rhand -12.9461 17.0262
rfingers 7.12502
rthumb 13.1451 -12.5394
lclavicle -4.96962e-015 -1.27222e-014
lhumerus -30.4725 12.2527 81.4021
lradius 29.5435
lwrist -11.1312
lhand -11.2579 31.0606
lfingers 7.12502
lthumb 14.772 60.5142
rfemur -15.6382 4.02336 25.1785
rtibia 20.4128
rfoot -0.8001 -5.94593
rtoes 15.4455
lfemur -3.98461 -2.67886 -19.9881
ltibia 52.3961
lfoot 18.5651 -16.2951
ltoes -7.21428
70
root -10.006 17.6417 -22.2364 -0.884001 -2.36196 -0.863438
lowerback 5.60155 -1.61188 -0.344478
upperback 0.782225 -2.08561 3.45012
thorax -2.19239 -1.02932 3.90874
lowerneck -15.8487 -2.61454 -9.66113
upperneck 22.7412 -2.45006 5.36876
head 10.0495 -1.35682 3.19149
rclavicle -1.87355e-014 7.95139e-016
rhumerus -36.3494 -18.2294 -74.534
rradius 27.0077
rwrist 10.1163
rhand -12.7429 17.5389
rfingers 7.12502
rthumb 13.341 -12.014
lclavicle -1.87355e-014 7.95139e-016
lhumerus -30.7198 11.8803 81.6825
lradius 29.297
lwrist -10.0978
lhand -10.985 33.0135
lfingers 7.12502
lthumb 15.0349 62.4476
rfemur -14.6149 4.03736 25.7334
rtibia 19.9404
rfoot -1.28864 -6.17059
rtoes 15.8365
lfemur -5.28666 -2.56654 -19.332
ltibia 54.4407
lfoot 17.8309 -16.3531
ltoes -6.20983
71
root -10.0228 17.6657 -22.0973 -0.919735 -2.77247 -0.97457
lowerback 5.74487 -1.44896 -0.260329
upperback 0.802674 -1.8604 3.49189
thorax -2.26843 -0.916668 3.89332
lowerneck -15.7328 -2.67728 -9.80625
upperneck 22.6033 -2.53548 5.47848
head 9.98915 -1.3953 3.24129
rclavicle 1.89342e-014 5.56597e-015
rhumerus -36.1323 -18.108 -74.548
rradius 27.0896
rwrist 10.5909
rhand -12.5879 17.9691
rfingers 7.12502
rthumb 13.4904 -11.574
lclavicle 1.89342e-014 5.56597e-015
lhumerus -30.9506 11.9827 81.8258
lradius 29.1369
lwrist -10.649
lhand -10.1929 35.4643
lfingers 7.12502
lthumb 15.7979 64.8397
rfemur -13.8663 4.04765 25.9813
rtibia 19.5919
rfoot -1.62108 -5.83597
rtoes 15.1727
lfemur -6.85252 -1.91622 -19.0612
ltibia 56.3998
lfoot 16.3039 -16.2552
ltoes -8.64432
